<?xml version="1.0" standalone="no"?>
<!DOCTYPE svg PUBLIC "-//W3C//DTD SVG 20010904//EN"
 "http://www.w3.org/TR/2001/REC-SVG-20010904/DTD/svg10.dtd">
<svg version="1.0" xmlns="http://www.w3.org/2000/svg"
 width="1920.000000pt" height="1080.000000pt" viewBox="0 0 1920.000000 1080.000000"
 preserveAspectRatio="xMidYMid meet">

<g transform="translate(0.000000,1080.000000) scale(0.100000,-0.100000)"
fill="#000000" stroke="none">
<path d="M10710 10771 c-11 -17 -33 -56 -48 -88 l-27 -58 -3 -290 c-4 -332 2
-374 70 -476 39 -57 41 -59 84 -59 50 0 50 -3 -2 70 -64 90 -69 122 -69 445 0
322 2 334 74 438 l32 47 -45 0 c-38 0 -48 -4 -66 -29z"/>
<path d="M12420 10743 c66 -96 72 -141 68 -466 -3 -315 -4 -320 -84 -428 l-36
-49 46 0 c39 0 48 4 70 33 81 106 100 216 93 536 -5 250 -13 293 -70 378 -30
45 -35 48 -79 51 l-48 3 40 -58z"/>
<path d="M100 10311 l0 -381 45 0 45 0 0 144 0 143 93 5 c105 6 148 23 177 71
17 27 20 51 20 162 0 205 -22 227 -242 233 l-138 4 0 -381z m271 280 c23 -18
24 -25 24 -136 0 -111 -1 -118 -24 -136 -18 -15 -39 -19 -102 -19 l-79 0 0
155 0 155 79 0 c63 0 84 -4 102 -19z"/>
<path d="M690 10310 l0 -380 180 0 180 0 0 40 0 40 -135 0 -135 0 0 135 0 135
120 0 120 0 0 40 0 40 -120 0 -120 0 0 125 0 125 135 0 135 0 0 40 0 40 -180
0 -180 0 0 -380z"/>
<path d="M1260 10311 l0 -381 45 0 45 0 0 144 0 143 93 5 c105 6 148 23 177
71 17 27 20 51 20 162 0 205 -22 227 -242 233 l-138 4 0 -381z m271 280 c23
-18 24 -25 24 -136 0 -111 -1 -118 -24 -136 -18 -15 -39 -19 -102 -19 l-79 0
0 155 0 155 79 0 c63 0 84 -4 102 -19z"/>
<path d="M1890 10650 l0 -40 50 0 50 0 0 -300 0 -300 -50 0 -50 0 0 -40 0 -40
140 0 140 0 0 40 0 40 -45 0 -45 0 0 300 0 300 45 0 45 0 0 40 0 40 -140 0
-140 0 0 -40z"/>
<path d="M2410 10310 l0 -380 45 0 45 0 0 143 c0 132 2 144 23 170 l22 28 85
-170 85 -171 53 0 53 0 -39 73 c-102 188 -183 348 -179 354 2 5 47 79 100 165
54 87 97 160 97 163 0 4 -21 5 -47 3 l-46 -3 -101 -162 -101 -162 -3 165 -2
164 -45 0 -45 0 0 -380z"/>
<path d="M3133 10678 c-88 -19 -129 -95 -121 -220 9 -116 57 -166 171 -175 90
-8 97 -17 97 -130 0 -86 -2 -96 -25 -118 -22 -23 -31 -25 -125 -25 l-100 0 0
-41 0 -41 108 4 c119 4 170 22 206 71 17 23 22 47 24 121 7 171 -27 221 -159
235 -95 10 -109 26 -109 126 0 65 3 75 26 99 25 25 32 26 125 26 l99 0 0 40 0
40 -87 -1 c-49 -1 -107 -5 -130 -11z"/>
<path d="M4210 10650 l0 -40 50 0 50 0 0 -300 0 -300 -50 0 -50 0 0 -40 0 -40
140 0 140 0 0 40 0 40 -45 0 -45 0 0 300 0 300 45 0 45 0 0 40 0 40 -140 0
-140 0 0 -40z"/>
<path d="M5620 10580 l0 -110 -70 0 c-107 0 -164 -16 -199 -55 -36 -42 -45
-99 -39 -263 5 -134 19 -171 77 -198 47 -23 149 -30 197 -14 28 10 39 10 42 1
2 -6 21 -11 43 -11 l39 0 0 380 0 380 -45 0 -45 0 0 -110z m0 -364 c0 -208 1
-206 -112 -206 -105 0 -108 5 -108 190 0 191 0 190 130 190 l90 0 0 -174z"/>
<path d="M8360 10640 l0 -50 50 0 50 0 0 50 0 50 -50 0 -50 0 0 -50z"/>
<path d="M11100 10650 l0 -40 85 0 85 0 0 -340 0 -340 45 0 45 0 0 340 0 340
85 0 85 0 0 40 0 40 -215 0 -215 0 0 -40z"/>
<path d="M11660 10310 l0 -380 40 0 40 0 1 338 1 337 52 -205 52 -205 44 0 44
0 51 197 c28 108 54 200 58 204 4 4 7 -144 7 -329 l0 -337 35 0 35 0 0 380 0
380 -68 0 -69 0 -22 -102 c-55 -248 -64 -281 -71 -267 -4 8 -25 94 -46 192
l-39 177 -72 0 -73 0 0 -380z"/>
<path d="M15900 10640 l0 -50 50 0 50 0 0 50 0 50 -50 0 -50 0 0 -50z"/>
<path d="M17480 10650 l0 -40 80 0 80 0 0 -309 0 -310 24 -28 c23 -27 28 -28
130 -31 l106 -4 0 41 0 41 -78 0 c-47 0 -83 5 -90 12 -9 9 -12 98 -12 340 l0
328 -120 0 -120 0 0 -40z"/>
<path d="M7180 10535 l0 -65 -50 0 -50 0 0 -40 0 -40 50 0 50 0 0 -180 c0
-209 8 -242 64 -265 20 -9 67 -15 106 -15 l70 0 0 40 0 40 -59 0 c-97 0 -91
-13 -91 196 l0 184 75 0 75 0 0 40 0 40 -75 0 -75 0 0 65 0 65 -45 0 -45 0 0
-65z"/>
<path d="M13560 10535 l0 -65 -50 0 -50 0 0 -40 0 -40 50 0 50 0 0 -180 c0
-209 8 -242 64 -265 20 -9 67 -15 106 -15 l70 0 0 40 0 40 -59 0 c-97 0 -91
-13 -91 196 l0 184 75 0 75 0 0 40 0 40 -75 0 -75 0 0 65 0 65 -45 0 -45 0 0
-65z"/>
<path d="M4740 10200 l0 -270 40 0 40 0 0 201 c0 195 5 232 34 251 6 4 41 8
79 8 108 0 107 3 107 -250 l0 -210 46 0 46 0 -4 218 c-4 242 -9 266 -71 299
-41 22 -195 25 -220 4 -15 -12 -17 -11 -17 3 0 12 -10 16 -40 16 l-40 0 0
-270z"/>
<path d="M5902 10253 c3 -241 10 -268 68 -298 43 -22 139 -30 186 -15 28 10
39 10 42 1 2 -6 21 -11 43 -11 l39 0 0 270 0 270 -45 0 -45 0 0 -213 c0 -252
2 -247 -98 -247 -102 0 -102 -1 -102 250 l0 210 -46 0 -46 0 4 -217z"/>
<path d="M6609 10461 c-72 -22 -99 -61 -99 -141 0 -63 20 -113 54 -135 15 -10
55 -19 94 -22 78 -6 92 -18 92 -78 0 -65 -18 -75 -133 -75 l-97 0 0 -40 0 -40
86 0 c112 0 168 15 199 52 22 26 25 39 25 108 0 70 -3 82 -26 109 -28 33 -76
51 -139 51 -53 0 -65 13 -65 72 0 61 13 68 124 68 l86 0 0 40 0 40 -87 -1
c-49 0 -100 -4 -114 -8z"/>
<path d="M7650 10430 l0 -40 40 0 40 0 0 -190 0 -190 -40 0 -40 0 0 -40 0 -40
140 0 140 0 0 40 0 40 -55 0 -55 0 0 170 c0 210 0 210 115 210 l75 0 0 40 0
40 -65 0 c-36 0 -81 -7 -100 -14 -31 -13 -35 -13 -35 0 0 11 -17 14 -80 14
l-80 0 0 -40z"/>
<path d="M8210 10430 l0 -40 80 0 80 0 0 -230 0 -230 120 0 120 0 0 40 0 40
-80 0 -80 0 0 230 0 230 -120 0 -120 0 0 -40z"/>
<path d="M8915 10461 c-98 -25 -110 -53 -110 -256 0 -243 19 -266 223 -273
l112 -4 0 41 0 41 -103 0 c-95 0 -105 2 -125 23 -17 18 -22 36 -22 75 l0 52
146 0 146 0 -4 103 c-6 160 -36 198 -161 203 -40 2 -85 0 -102 -5z m157 -88
c13 -12 18 -31 18 -75 l0 -58 -100 0 -100 0 0 55 c0 77 20 95 102 95 43 0 67
-5 80 -17z"/>
<path d="M9509 10461 c-72 -22 -99 -61 -99 -141 0 -63 20 -113 54 -135 15 -10
55 -19 94 -22 78 -6 92 -18 92 -78 0 -65 -18 -75 -133 -75 l-97 0 0 -40 0 -40
86 0 c112 0 168 15 199 52 22 26 25 39 25 108 0 70 -3 82 -26 109 -28 33 -76
51 -139 51 -53 0 -65 13 -65 72 0 61 13 68 124 68 l86 0 0 40 0 40 -87 -1
c-49 0 -100 -4 -114 -8z"/>
<path d="M14135 10461 c-98 -25 -110 -53 -110 -256 0 -243 19 -266 223 -273
l112 -4 0 41 0 41 -103 0 c-95 0 -105 2 -125 23 -17 18 -22 36 -22 75 l0 52
146 0 146 0 -4 103 c-6 160 -36 198 -161 203 -40 2 -85 0 -102 -5z m157 -88
c13 -12 18 -31 18 -75 l0 -58 -100 0 -100 0 0 55 c0 77 20 95 102 95 43 0 67
-5 80 -17z"/>
<path d="M14610 10430 l0 -40 40 0 40 0 0 -190 0 -190 -40 0 -40 0 0 -40 0
-40 140 0 140 0 0 40 0 40 -55 0 -55 0 0 170 c0 210 0 210 115 210 l75 0 0 40
0 40 -65 0 c-36 0 -81 -7 -100 -14 -31 -13 -35 -13 -35 0 0 11 -17 14 -80 14
l-80 0 0 -40z"/>
<path d="M15130 10200 l0 -270 40 0 40 0 0 213 c0 241 4 257 65 257 24 0 38
-6 45 -19 6 -12 10 -106 10 -235 l0 -216 40 0 40 0 0 208 c0 234 5 255 58 260
61 6 62 3 62 -244 l0 -224 40 0 40 0 0 228 c0 251 -3 266 -60 294 -45 23 -77
23 -124 -1 -33 -17 -41 -18 -60 -6 -34 22 -93 29 -128 14 -24 -10 -33 -10 -36
-1 -2 7 -19 12 -38 12 l-34 0 0 -270z"/>
<path d="M15750 10430 l0 -40 80 0 80 0 0 -230 0 -230 120 0 120 0 0 40 0 40
-80 0 -80 0 0 230 0 230 -120 0 -120 0 0 -40z"/>
<path d="M16340 10200 l0 -270 40 0 40 0 0 201 c0 195 5 232 34 251 6 4 41 8
79 8 108 0 107 3 107 -250 l0 -210 46 0 46 0 -4 218 c-4 242 -9 266 -71 299
-41 22 -195 25 -220 4 -15 -12 -17 -11 -17 3 0 12 -10 16 -40 16 l-40 0 0
-270z"/>
<path d="M16940 10431 l0 -41 99 0 c120 0 140 -11 148 -83 l6 -47 -89 -1
c-110 0 -151 -14 -182 -59 -21 -31 -23 -44 -20 -121 4 -101 15 -121 83 -138
62 -16 165 -14 198 4 25 13 32 13 57 0 16 -8 43 -15 60 -15 28 0 30 2 30 40 0
32 -4 40 -18 40 -38 0 -42 18 -42 189 0 147 -2 170 -20 198 -31 52 -70 66
-197 71 l-113 5 0 -42z m250 -310 c0 -33 -4 -71 -10 -85 -9 -25 -13 -26 -89
-26 -97 0 -111 10 -111 81 0 75 19 89 125 89 l85 0 0 -59z"/>
</g>
</svg>
